<?xml version="1.0" encoding="UTF-8"?>
<svg width="999px" height="243px" viewBox="0 0 999 243" version="1.1" xmlns="http://www.w3.org/2000/svg" xmlns:xlink="http://www.w3.org/1999/xlink" style="background: #FFFFFF;">
    <!-- Generator: Sketch 45.2 (43514) - http://www.bohemiancoding.com/sketch -->
    <title>Artboard</title>
    <desc>Created with Sketch.</desc>
    <defs></defs>
    <g id="Page-1" stroke="none" stroke-width="1" fill="none" fill-rule="evenodd">
        <g id="Artboard">
            <g id="logo" transform="translate(30.000000, 27.000000)" fill-rule="nonzero" fill="#29ABE2">
                <path d="M76.3262984,64.2494459 C81.1542915,60.164221 85.6109004,56.0789961 90.4388935,52.3651553 C86.7250527,49.7654668 83.3825959,47.5371623 80.0401392,45.3088578 C75.9549143,48.6513145 71.8696894,52.3651553 67.7844646,56.0789961 C71.8696894,57.5645325 74.8407621,60.5356051 76.3262984,64.2494459 Z" id="Shape"></path>
                <ellipse id="Oval" transform="translate(64.441789, 67.591755) rotate(0.151110) translate(-64.441789, -67.591755) " cx="64.4417887" cy="67.5917554" rx="15.969571" ry="15.2268003"></ellipse>
                <path d="M78.925987,153.010241 C57.0143262,164.894532 38.0737381,167.865604 29.5319043,159.695155 C17.6476137,148.182248 28.417752,118.100138 54.4146377,87.646643 C50.3294128,86.5324907 46.9869561,83.5614181 45.1300357,79.8475773 C7.24885946,122.185362 -9.83480824,164.894532 6.87747537,180.864047 C20.6186863,194.233874 53.6718695,185.320656 90.0675094,161.552075 C86.3536686,158.952386 82.6398278,155.981314 78.925987,153.010241 Z" id="Shape"></path>
                <path d="M104.922873,51.6223872 C106.037025,47.5371623 109.008097,44.1947056 112.721938,42.3377852 C68.8986168,6.31352937 24.3325272,-9.65598609 7.62024354,6.31352937 C-6.12096744,19.6833563 2.79225049,51.2510031 27.6749839,86.1611066 C30.6460565,82.4472658 33.6171292,79.1048091 36.5882018,75.3909683 C24.3325272,54.2220757 20.9900704,36.0242558 29.5319043,27.4824219 C41.7875789,15.9695155 72.9838417,26.7396538 104.922873,51.6223872 Z" id="Shape"></path>
                <path d="M134.633599,62.0211414 C133.148063,65.7349822 129.805606,68.7060549 126.091765,70.1915912 C131.662526,75.7623524 136.861904,80.9617295 141.318512,86.5324907 C143.918201,83.190034 146.51789,79.8475773 148.37481,76.5051206 C144.289585,71.6771275 139.461592,66.8491345 134.633599,62.0211414 Z" id="Shape"></path>
                <path d="M125.720381,76.8765046 C134.633599,76.8765046 141.689897,70.1915912 141.689897,61.6497573 C141.689897,53.1079235 134.633599,46.42301 125.720381,46.42301 C116.807163,46.42301 109.750866,53.1079235 109.750866,61.6497573 C109.750866,69.8202071 116.807163,76.8765046 125.720381,76.8765046 Z" id="Shape"></path>
                <path d="M166.944014,27.853806 C178.828305,39.3667125 168.058166,69.448823 142.061281,99.9023176 C146.146506,101.01647 149.488962,103.987543 151.345883,107.701383 C188.855675,65.3635981 205.939342,22.2830448 189.227059,6.31352937 C175.485848,-6.68491345 142.432665,2.22830448 106.408409,25.9968856 C110.12225,28.5965742 113.836091,31.5676468 117.549931,34.5387195 C139.461592,22.6544289 158.40218,19.6833563 166.944014,27.853806 Z" id="Shape"></path>
                <path d="M122.749308,120.699826 C117.178547,125.899203 111.236402,130.727196 105.665641,135.183805 C109.379482,137.783494 112.721938,140.011798 116.435779,142.240103 C121.635156,138.154878 126.463149,133.698269 131.662526,128.870276 C127.577301,127.38474 124.606229,124.413667 122.749308,120.699826 Z" id="Shape"></path>
                <ellipse id="Oval" transform="translate(131.846915, 120.150782) rotate(-179.842174) translate(-131.846915, -120.150782) " cx="131.846915" cy="120.150782" rx="15.969576" ry="15.2268051"></ellipse>
                <path d="M70.3841531,117.728753 C64.8133919,112.157992 59.6140148,106.958615 55.1574058,101.387854 C52.5577173,104.730311 49.9580287,108.072767 48.1011083,111.415224 C52.5577173,116.243217 57.0143262,121.07121 61.8423193,125.899203 C63.3278556,122.185362 66.2989282,119.21429 70.3841531,117.728753 Z" id="Shape"></path>
                <path d="M168.800934,101.759238 C165.829862,105.473079 162.858789,108.815536 159.887716,112.529376 C172.143391,133.698269 175.485848,151.524705 166.57263,160.066539 C154.316955,171.579445 123.120693,160.809307 91.1816616,136.297958 C90.0675094,140.383182 87.0964367,143.725639 83.3825959,145.58256 C127.577301,181.606815 172.143391,197.947715 188.855675,181.978199 C202.596886,168.236988 193.683668,136.297958 168.800934,101.759238 Z" id="Shape"></path>
                <ellipse id="Oval" transform="translate(70.824878, 126.057320) rotate(-89.849725) translate(-70.824878, -126.057320) " cx="70.8248777" cy="126.05732" rx="15.2267997" ry="15.9695704"></ellipse>
            </g>
            <path d="M378.475,161.32 C391.125,161.32 399.485,156.92 407.075,149.99 C407.845,149.33 408.505,148.23 408.505,146.91 C408.505,144.71 406.525,142.73 404.325,142.73 C403.225,142.73 402.235,143.28 401.575,143.94 C394.975,149.99 388.265,153.29 378.695,153.29 C361.755,153.29 348.885,139.32 348.885,121.5 L348.885,121.28 C348.885,103.57 361.645,89.71 378.695,89.71 C388.155,89.71 394.865,93.23 400.805,98.51 C401.465,98.95 402.455,99.5 403.665,99.5 C405.975,99.5 408.065,97.52 408.065,95.21 C408.065,93.67 407.185,92.46 406.305,91.69 C399.155,85.75 391.235,81.68 378.805,81.68 C356.145,81.68 339.865,99.72 339.865,121.5 L339.865,121.72 C339.865,143.83 356.255,161.32 378.475,161.32 Z M458.005,161.32 C434.575,161.32 418.845,142.95 418.845,121.72 L418.845,121.5 C418.845,100.27 434.795,81.68 458.225,81.68 C481.655,81.68 497.385,100.05 497.385,121.28 L497.385,121.5 C497.385,142.73 481.435,161.32 458.005,161.32 Z M458.225,153.29 C475.825,153.29 488.365,139.21 488.365,121.72 L488.365,121.5 C488.365,104.01 475.605,89.71 458.005,89.71 C440.405,89.71 427.865,103.79 427.865,121.28 L427.865,121.5 C427.865,138.99 440.625,153.29 458.225,153.29 Z M541.605,161.1 C556.895,161.1 567.895,152.52 567.895,139.32 L567.895,139.1 C567.895,127.33 559.975,121.06 542.815,117.32 C525.875,113.69 521.915,109.62 521.915,102.36 L521.915,102.14 C521.915,95.21 528.295,89.71 538.305,89.71 C545.455,89.71 551.725,91.69 558.215,96.42 C558.985,96.97 559.755,97.19 560.745,97.19 C563.055,97.19 564.925,95.32 564.925,93.01 C564.925,91.36 563.935,90.15 563.055,89.49 C556.015,84.43 548.645,81.9 538.525,81.9 C523.895,81.9 513.225,90.81 513.225,102.91 L513.225,103.13 C513.225,115.78 521.365,121.5 539.075,125.35 C555.245,128.76 559.095,132.83 559.095,139.98 L559.095,140.2 C559.095,147.79 552.275,153.29 541.935,153.29 C532.145,153.29 524.885,150.32 517.625,144.16 C517.075,143.61 516.085,143.17 514.985,143.17 C512.675,143.17 510.805,145.04 510.805,147.46 C510.805,148.89 511.465,150.1 512.455,150.76 C521.035,157.58 530.385,161.1 541.605,161.1 Z M585.605,156.26 C585.605,158.68 587.475,160.55 589.785,160.55 C592.205,160.55 594.075,158.68 594.075,156.26 L594.075,98.84 L618.605,134.92 C619.595,136.35 620.805,137.12 622.345,137.12 C623.885,137.12 624.985,136.35 625.975,134.92 L650.615,98.73 L650.615,156.15 C650.615,158.46 652.595,160.55 655.015,160.55 C657.325,160.55 659.305,158.57 659.305,156.15 L659.305,86.96 C659.305,84.65 657.325,82.67 655.015,82.67 L654.025,82.67 C652.265,82.67 650.835,83.55 649.955,84.98 L622.455,126.34 L594.955,84.98 C594.075,83.66 592.755,82.67 590.885,82.67 L589.895,82.67 C587.585,82.67 585.605,84.65 585.605,86.96 L585.605,156.26 Z M681.855,156.15 C681.855,158.57 683.835,160.55 686.145,160.55 C688.565,160.55 690.545,158.57 690.545,156.15 L690.545,86.85 C690.545,84.43 688.565,82.45 686.145,82.45 C683.835,82.45 681.855,84.43 681.855,86.85 L681.855,156.15 Z M748.295,161.32 C760.945,161.32 769.305,156.92 776.895,149.99 C777.665,149.33 778.325,148.23 778.325,146.91 C778.325,144.71 776.345,142.73 774.145,142.73 C773.045,142.73 772.055,143.28 771.395,143.94 C764.795,149.99 758.085,153.29 748.515,153.29 C731.575,153.29 718.705,139.32 718.705,121.5 L718.705,121.28 C718.705,103.57 731.465,89.71 748.515,89.71 C757.975,89.71 764.685,93.23 770.625,98.51 C771.285,98.95 772.275,99.5 773.485,99.5 C775.795,99.5 777.885,97.52 777.885,95.21 C777.885,93.67 777.005,92.46 776.125,91.69 C768.975,85.75 761.055,81.68 748.625,81.68 C725.965,81.68 709.685,99.72 709.685,121.5 L709.685,121.72 C709.685,143.83 726.075,161.32 748.295,161.32 Z M843.555,161.1 C850.375,161.1 856.205,158.9 860.495,154.72 C864.895,150.32 867.535,143.5 867.535,134.48 L867.535,86.85 C867.535,84.43 865.665,82.45 863.245,82.45 C860.825,82.45 858.845,84.43 858.845,86.85 L858.845,134.59 C858.845,146.8 852.465,153.07 843.775,153.07 C836.625,153.07 832.115,150.1 827.935,144.38 C827.275,143.61 826.285,142.84 824.855,142.84 C822.545,142.84 820.565,144.82 820.565,147.13 C820.565,148.34 821.115,149.44 821.775,150.1 C826.505,156.48 833.435,161.1 843.555,161.1 Z M914.505,161.1 C929.795,161.1 940.795,152.52 940.795,139.32 L940.795,139.1 C940.795,127.33 932.875,121.06 915.715,117.32 C898.775,113.69 894.815,109.62 894.815,102.36 L894.815,102.14 C894.815,95.21 901.195,89.71 911.205,89.71 C918.355,89.71 924.625,91.69 931.115,96.42 C931.885,96.97 932.655,97.19 933.645,97.19 C935.955,97.19 937.825,95.32 937.825,93.01 C937.825,91.36 936.835,90.15 935.955,89.49 C928.915,84.43 921.545,81.9 911.425,81.9 C896.795,81.9 886.125,90.81 886.125,102.91 L886.125,103.13 C886.125,115.78 894.265,121.5 911.975,125.35 C928.145,128.76 931.995,132.83 931.995,139.98 L931.995,140.2 C931.995,147.79 925.175,153.29 914.835,153.29 C905.045,153.29 897.785,150.32 890.525,144.16 C889.975,143.61 888.985,143.17 887.885,143.17 C885.575,143.17 883.705,145.04 883.705,147.46 C883.705,148.89 884.365,150.1 885.355,150.76 C893.935,157.58 903.285,161.1 914.505,161.1 Z" id="COSMIC-JS" fill="#42515A"></path>
        </g>
    </g>
</svg>