<?xml version="1.0" encoding="UTF-8"?>
<svg width="844px" height="189px" viewBox="0 0 844 189" version="1.1" xmlns="http://www.w3.org/2000/svg" xmlns:xlink="http://www.w3.org/1999/xlink">
    <!-- Generator: Sketch 45.2 (43514) - http://www.bohemiancoding.com/sketch -->
    <title>cosmicjs-logo</title>
    <desc>Created with Sketch.</desc>
    <defs></defs>
    <g id="Page-1" stroke="none" stroke-width="1" fill="none" fill-rule="evenodd">
        <g id="cosmicjs-logo" fill-rule="nonzero">
            <g id="logo" fill="#29ABE2">
                <path d="M76.3262984,64.2494459 C81.1542915,60.164221 85.6109004,56.0789961 90.4388935,52.3651553 C86.7250527,49.7654668 83.3825959,47.5371623 80.0401392,45.3088578 C75.9549143,48.6513145 71.8696894,52.3651553 67.7844646,56.0789961 C71.8696894,57.5645325 74.8407621,60.5356051 76.3262984,64.2494459 Z" id="Shape"></path>
                <ellipse id="Oval" transform="translate(64.441789, 67.591755) rotate(0.151110) translate(-64.441789, -67.591755) " cx="64.4417887" cy="67.5917554" rx="15.969571" ry="15.2268003"></ellipse>
                <path d="M78.925987,153.010241 C57.0143262,164.894532 38.0737381,167.865604 29.5319043,159.695155 C17.6476137,148.182248 28.417752,118.100138 54.4146377,87.646643 C50.3294128,86.5324907 46.9869561,83.5614181 45.1300357,79.8475773 C7.24885946,122.185362 -9.83480824,164.894532 6.87747537,180.864047 C20.6186863,194.233874 53.6718695,185.320656 90.0675094,161.552075 C86.3536686,158.952386 82.6398278,155.981314 78.925987,153.010241 Z" id="Shape"></path>
                <path d="M104.922873,51.6223872 C106.037025,47.5371623 109.008097,44.1947056 112.721938,42.3377852 C68.8986168,6.31352937 24.3325272,-9.65598609 7.62024354,6.31352937 C-6.12096744,19.6833563 2.79225049,51.2510031 27.6749839,86.1611066 C30.6460565,82.4472658 33.6171292,79.1048091 36.5882018,75.3909683 C24.3325272,54.2220757 20.9900704,36.0242558 29.5319043,27.4824219 C41.7875789,15.9695155 72.9838417,26.7396538 104.922873,51.6223872 Z" id="Shape"></path>
                <path d="M134.633599,62.0211414 C133.148063,65.7349822 129.805606,68.7060549 126.091765,70.1915912 C131.662526,75.7623524 136.861904,80.9617295 141.318512,86.5324907 C143.918201,83.190034 146.51789,79.8475773 148.37481,76.5051206 C144.289585,71.6771275 139.461592,66.8491345 134.633599,62.0211414 Z" id="Shape"></path>
                <path d="M125.720381,76.8765046 C134.633599,76.8765046 141.689897,70.1915912 141.689897,61.6497573 C141.689897,53.1079235 134.633599,46.42301 125.720381,46.42301 C116.807163,46.42301 109.750866,53.1079235 109.750866,61.6497573 C109.750866,69.8202071 116.807163,76.8765046 125.720381,76.8765046 Z" id="Shape"></path>
                <path d="M166.944014,27.853806 C178.828305,39.3667125 168.058166,69.448823 142.061281,99.9023176 C146.146506,101.01647 149.488962,103.987543 151.345883,107.701383 C188.855675,65.3635981 205.939342,22.2830448 189.227059,6.31352937 C175.485848,-6.68491345 142.432665,2.22830448 106.408409,25.9968856 C110.12225,28.5965742 113.836091,31.5676468 117.549931,34.5387195 C139.461592,22.6544289 158.40218,19.6833563 166.944014,27.853806 Z" id="Shape"></path>
                <path d="M122.749308,120.699826 C117.178547,125.899203 111.236402,130.727196 105.665641,135.183805 C109.379482,137.783494 112.721938,140.011798 116.435779,142.240103 C121.635156,138.154878 126.463149,133.698269 131.662526,128.870276 C127.577301,127.38474 124.606229,124.413667 122.749308,120.699826 Z" id="Shape"></path>
                <ellipse id="Oval" transform="translate(131.846915, 120.150782) rotate(-179.842174) translate(-131.846915, -120.150782) " cx="131.846915" cy="120.150782" rx="15.969576" ry="15.2268051"></ellipse>
                <path d="M70.3841531,117.728753 C64.8133919,112.157992 59.6140148,106.958615 55.1574058,101.387854 C52.5577173,104.730311 49.9580287,108.072767 48.1011083,111.415224 C52.5577173,116.243217 57.0143262,121.07121 61.8423193,125.899203 C63.3278556,122.185362 66.2989282,119.21429 70.3841531,117.728753 Z" id="Shape"></path>
                <path d="M168.800934,101.759238 C165.829862,105.473079 162.858789,108.815536 159.887716,112.529376 C172.143391,133.698269 175.485848,151.524705 166.57263,160.066539 C154.316955,171.579445 123.120693,160.809307 91.1816616,136.297958 C90.0675094,140.383182 87.0964367,143.725639 83.3825959,145.58256 C127.577301,181.606815 172.143391,197.947715 188.855675,181.978199 C202.596886,168.236988 193.683668,136.297958 168.800934,101.759238 Z" id="Shape"></path>
                <ellipse id="Oval" transform="translate(70.824878, 126.057320) rotate(-89.849725) translate(-70.824878, -126.057320) " cx="70.824878" cy="126.05732" rx="15.2267997" ry="15.9695704"></ellipse>
            </g>
            <path d="M281.61,134.64 C294.26,134.64 302.62,130.24 310.21,123.31 C310.98,122.65 311.64,121.55 311.64,120.23 C311.64,118.03 309.66,116.05 307.46,116.05 C306.36,116.05 305.37,116.6 304.71,117.26 C298.11,123.31 291.4,126.61 281.83,126.61 C264.89,126.61 252.02,112.64 252.02,94.82 L252.02,94.6 C252.02,76.89 264.78,63.03 281.83,63.03 C291.29,63.03 298,66.55 303.94,71.83 C304.6,72.27 305.59,72.82 306.8,72.82 C309.11,72.82 311.2,70.84 311.2,68.53 C311.2,66.99 310.32,65.78 309.44,65.01 C302.29,59.07 294.37,55 281.94,55 C259.28,55 243,73.04 243,94.82 L243,95.04 C243,117.15 259.39,134.64 281.61,134.64 Z M361.14,134.64 C337.71,134.64 321.98,116.27 321.98,95.04 L321.98,94.82 C321.98,73.59 337.93,55 361.36,55 C384.79,55 400.52,73.37 400.52,94.6 L400.52,94.82 C400.52,116.05 384.57,134.64 361.14,134.64 Z M361.36,126.61 C378.96,126.61 391.5,112.53 391.5,95.04 L391.5,94.82 C391.5,77.33 378.74,63.03 361.14,63.03 C343.54,63.03 331,77.11 331,94.6 L331,94.82 C331,112.31 343.76,126.61 361.36,126.61 Z M444.74,134.42 C460.03,134.42 471.03,125.84 471.03,112.64 L471.03,112.42 C471.03,100.65 463.11,94.38 445.95,90.64 C429.01,87.01 425.05,82.94 425.05,75.68 L425.05,75.46 C425.05,68.53 431.43,63.03 441.44,63.03 C448.59,63.03 454.86,65.01 461.35,69.74 C462.12,70.29 462.89,70.51 463.88,70.51 C466.19,70.51 468.06,68.64 468.06,66.33 C468.06,64.68 467.07,63.47 466.19,62.81 C459.15,57.75 451.78,55.22 441.66,55.22 C427.03,55.22 416.36,64.13 416.36,76.23 L416.36,76.45 C416.36,89.1 424.5,94.82 442.21,98.67 C458.38,102.08 462.23,106.15 462.23,113.3 L462.23,113.52 C462.23,121.11 455.41,126.61 445.07,126.61 C435.28,126.61 428.02,123.64 420.76,117.48 C420.21,116.93 419.22,116.49 418.12,116.49 C415.81,116.49 413.94,118.36 413.94,120.78 C413.94,122.21 414.6,123.42 415.59,124.08 C424.17,130.9 433.52,134.42 444.74,134.42 Z M488.74,129.58 C488.74,132 490.61,133.87 492.92,133.87 C495.34,133.87 497.21,132 497.21,129.58 L497.21,72.16 L521.74,108.24 C522.73,109.67 523.94,110.44 525.48,110.44 C527.02,110.44 528.12,109.67 529.11,108.24 L553.75,72.05 L553.75,129.47 C553.75,131.78 555.73,133.87 558.15,133.87 C560.46,133.87 562.44,131.89 562.44,129.47 L562.44,60.28 C562.44,57.97 560.46,55.99 558.15,55.99 L557.16,55.99 C555.4,55.99 553.97,56.87 553.09,58.3 L525.59,99.66 L498.09,58.3 C497.21,56.98 495.89,55.99 494.02,55.99 L493.03,55.99 C490.72,55.99 488.74,57.97 488.74,60.28 L488.74,129.58 Z M584.99,129.47 C584.99,131.89 586.97,133.87 589.28,133.87 C591.7,133.87 593.68,131.89 593.68,129.47 L593.68,60.17 C593.68,57.75 591.7,55.77 589.28,55.77 C586.97,55.77 584.99,57.75 584.99,60.17 L584.99,129.47 Z M651.43,134.64 C664.08,134.64 672.44,130.24 680.03,123.31 C680.8,122.65 681.46,121.55 681.46,120.23 C681.46,118.03 679.48,116.05 677.28,116.05 C676.18,116.05 675.19,116.6 674.53,117.26 C667.93,123.31 661.22,126.61 651.65,126.61 C634.71,126.61 621.84,112.64 621.84,94.82 L621.84,94.6 C621.84,76.89 634.6,63.03 651.65,63.03 C661.11,63.03 667.82,66.55 673.76,71.83 C674.42,72.27 675.41,72.82 676.62,72.82 C678.93,72.82 681.02,70.84 681.02,68.53 C681.02,66.99 680.14,65.78 679.26,65.01 C672.11,59.07 664.19,55 651.76,55 C629.1,55 612.82,73.04 612.82,94.82 L612.82,95.04 C612.82,117.15 629.21,134.64 651.43,134.64 Z M746.69,134.42 C753.51,134.42 759.34,132.22 763.63,128.04 C768.03,123.64 770.67,116.82 770.67,107.8 L770.67,60.17 C770.67,57.75 768.8,55.77 766.38,55.77 C763.96,55.77 761.98,57.75 761.98,60.17 L761.98,107.91 C761.98,120.12 755.6,126.39 746.91,126.39 C739.76,126.39 735.25,123.42 731.07,117.7 C730.41,116.93 729.42,116.16 727.99,116.16 C725.68,116.16 723.7,118.14 723.7,120.45 C723.7,121.66 724.25,122.76 724.91,123.42 C729.64,129.8 736.57,134.42 746.69,134.42 Z M817.64,134.42 C832.93,134.42 843.93,125.84 843.93,112.64 L843.93,112.42 C843.93,100.65 836.01,94.38 818.85,90.64 C801.91,87.01 797.95,82.94 797.95,75.68 L797.95,75.46 C797.95,68.53 804.33,63.03 814.34,63.03 C821.49,63.03 827.76,65.01 834.25,69.74 C835.02,70.29 835.79,70.51 836.78,70.51 C839.09,70.51 840.96,68.64 840.96,66.33 C840.96,64.68 839.97,63.47 839.09,62.81 C832.05,57.75 824.68,55.22 814.56,55.22 C799.93,55.22 789.26,64.13 789.26,76.23 L789.26,76.45 C789.26,89.1 797.4,94.82 815.11,98.67 C831.28,102.08 835.13,106.15 835.13,113.3 L835.13,113.52 C835.13,121.11 828.31,126.61 817.97,126.61 C808.18,126.61 800.92,123.64 793.66,117.48 C793.11,116.93 792.12,116.49 791.02,116.49 C788.71,116.49 786.84,118.36 786.84,120.78 C786.84,122.21 787.5,123.42 788.49,124.08 C797.07,130.9 806.42,134.42 817.64,134.42 Z" id="COSMIC-JS" fill="#42515A"></path>
        </g>
    </g>
</svg>